{"title":"I,Robot [2004]_ Dual-Audio [Eng-Hindi]_ Dip1990","uid":5449155,"size":841630232,"categoryP":"video","categoryS":"movies","magnet":"?xt=urn:btih:7f584264b0bac45419fb55256f82510b70b5129e&amp;dn=I%2CRobot+%5B2004%5D_+Dual-Audio+%5BEng-Hindi%5D_+Dip1990&amp;tr=udp%3A%2F%2Ftracker.openbittorrent.com%3A80&amp;tr=udp%3A%2F%2Fopen.demonii.com%3A1337&amp;tr=udp%3A%2F%2Ftracker.coppersurfer.tk%3A6969&amp;tr=udp%3A%2F%2Fexodus.desync.com%3A6969","seeders":0,"leechers":1,"uploader":"Dip1990","files":5,"time":1269120657,"description":"\t\tDip1990\n\n\n\nGeneral  \n\nComplete name : I,Robot [2004]_Dual-Audio[Eng-Hindi].avi \nFormat : AVI \nFormat/Info : Audio Video Interleave \nFormat profile : OpenDML \nFile size : 802 MiB \nDuration : 1h 50mn \nOverall bit rate : 1 019 Kbps \nWriting application : AVI-Mux GUI 1.17.8, Aug 30 2008 12:36:58 \n\nVideo  \n\nID : 0 \nFormat : MPEG-4 Visual \nFormat profile : Advanced Simple@L5 \nFormat settings, BVOP : Yes \nFormat settings, QPel : No \nFormat settings, GMC : No warppoints \nFormat settings, Matrix : Custom \nCodec ID : XVID \nCodec ID/Hint : XviD \nDuration : 1h 50mn \nBit rate : 760 Kbps \nWidth : 608 pixels \nHeight : 272 pixels \nDisplay aspect ratio : 2.25:1 \nFrame rate : 25.000 fps \nResolution : 8 bits \nColorimetry : 4:2:0 \nScan type : Progressive \nBits/(Pixel*Frame) : 0.184 \nStream size : 598 MiB (75%) \nWriting library : XviD 1.1.2 (UTC 2006-11-01) \n\nAudio #1  \n\nID : 1 \nFormat : MPEG Audio \nFormat version : Version 1 \nFormat profile : Layer 3 \nFormat_Settings_Mode : Joint stereo / MS Stereo \nCodec ID : 55 \nCodec ID/Hint : MP3 \nDuration : 1h 50mn \nBit rate mode : Constant \nBit rate : 128 Kbps \nChannel(s) : 2 channels \nSampling rate : 48.0 KHz \nStream size : 101 MiB (13%) \nAlignment : Aligned on interleaves \nInterleave, duration : 790 ms (19.75 video frames) \nInterleave, preload duration : 216 ms \nTitle : I,Robot-English \nWriting library : LAME3.98 (alpha) \n\nAudio #2  \n\nID : 2 \nFormat : MPEG Audio \nFormat version : Version 1 \nFormat profile : Layer 3 \nFormat_Settings_Mode : Joint stereo / MS Stereo \nCodec ID : 55 \nCodec ID/Hint : MP3 \nDuration : 1h 50mn \nBit rate mode : Constant \nBit rate : 128 Kbps \nChannel(s) : 2 channels \nSampling rate : 48.0 KHz \nStream size : 101 MiB (13%) \nAlignment : Aligned on interleaves \nInterleave, duration : 790 ms (19.75 video frames) \nInterleave, preload duration : 216 ms \nTitle : I,Robot-Hindi \nWriting library : LAME3.98 (alpha)\n\n","torrent":{"xt":"urn:btih:7f584264b0bac45419fb55256f82510b70b5129e","amp;dn":"I%2CRobot+%5B2004%5D_+Dual-Audio+%5BEng-Hindi%5D_+Dip1990","amp;tr":["udp%3A%2F%2Ftracker.openbittorrent.com%3A80","udp%3A%2F%2Fopen.demonii.com%3A1337","udp%3A%2F%2Ftracker.coppersurfer.tk%3A6969","udp%3A%2F%2Fexodus.desync.com%3A6969"],"infoHash":"7f584264b0bac45419fb55256f82510b70b5129e","infoHashBuffer":{"type":"Buffer","data":[127,88,66,100,176,186,196,84,25,251,85,37,111,130,81,11,112,181,18,158]},"announce":[],"urlList":[]}}